<mxfile host="app.diagrams.net" agent="Mozilla/5.0 (Macintosh; Intel Mac OS X 10_15_7) AppleWebKit/537.36 (KHTML, like Gecko) Chrome/137.0.0.0 Safari/537.36" version="27.1.6">
  <diagram name="第 1 页" id="TzMEYvM5NXTL6G3GgsEP">
    <mxGraphModel dx="1426" dy="824" grid="1" gridSize="10" guides="1" tooltips="1" connect="1" arrows="1" fold="1" page="1" pageScale="1" pageWidth="827" pageHeight="1169" math="0" shadow="0">
      <root>
        <mxCell id="0" />
        <mxCell id="1" parent="0" />
        <mxCell id="e-EIxeC3hsusqqLx89U6-105" value="NebulaGraph 可视化应用平台 - Turborepo 单体仓库架构" style="whiteSpace=wrap;html=1;fillColor=#1565C0;fontColor=#ffffff;strokeColor=#0D47A1;fontSize=12;fontStyle=1;rounded=3;shadow=1;align=left;verticalAlign=top;" vertex="1" parent="1">
          <mxGeometry x="150" y="20" width="700" height="60" as="geometry" />
        </mxCell>
        <mxCell id="e-EIxeC3hsusqqLx89U6-106" value="前端应用层 (Frontend Applications) - apps/" style="whiteSpace=wrap;html=1;fillColor=#E3F2FD;strokeColor=#1976D2;fontSize=10;fontStyle=1;rounded=2;shadow=1;align=left;verticalAlign=top;" vertex="1" parent="1">
          <mxGeometry x="50" y="100" width="900" height="100" as="geometry" />
        </mxCell>
        <mxCell id="e-EIxeC3hsusqqLx89U6-112" value="后端服务层 (Backend Services) - servers/" style="whiteSpace=wrap;html=1;fillColor=#FFF3E0;strokeColor=#FF8F00;fontSize=10;fontStyle=1;rounded=2;shadow=1;align=left;verticalAlign=top;" vertex="1" parent="1">
          <mxGeometry x="50" y="220" width="900" height="100" as="geometry" />
        </mxCell>
        <mxCell id="e-EIxeC3hsusqqLx89U6-118" value="共享包层 (Shared Packages) - packages/" style="whiteSpace=wrap;html=1;fillColor=#F3E5F5;strokeColor=#7B1FA2;fontSize=10;fontStyle=1;rounded=2;shadow=1;align=left;verticalAlign=top;" vertex="1" parent="1">
          <mxGeometry x="50" y="340" width="900" height="120" as="geometry" />
        </mxCell>
        <mxCell id="e-EIxeC3hsusqqLx89U6-126" value="数据存储层 (Data Storage Layer)" style="whiteSpace=wrap;html=1;fillColor=#EFEBE9;strokeColor=#5D4037;fontSize=10;fontStyle=1;rounded=2;shadow=1;align=left;verticalAlign=top;" vertex="1" parent="1">
          <mxGeometry x="50" y="480" width="900" height="80" as="geometry" />
        </mxCell>
        <mxCell id="e-EIxeC3hsusqqLx89U6-127" value="部署环境 (Deployment Environment)" style="whiteSpace=wrap;html=1;fillColor=#F5F5F5;strokeColor=#666666;fontSize=10;fontStyle=1;rounded=2;align=left;verticalAlign=top;" vertex="1" parent="1">
          <mxGeometry x="50" y="580" width="900" height="60" as="geometry" />
        </mxCell>
        <mxCell id="e-EIxeC3hsusqqLx89U6-132" value="nebula-dashboard" style="whiteSpace=wrap;html=1;fillColor=#C8E6C9;strokeColor=#388E3C;fontSize=9;rounded=2;" vertex="1" parent="1">
          <mxGeometry x="70" y="120" width="160" height="60" as="geometry" />
        </mxCell>
        <mxCell id="e-EIxeC3hsusqqLx89U6-133" value="nebula-explorer" style="whiteSpace=wrap;html=1;fillColor=#C8E6C9;strokeColor=#388E3C;fontSize=9;rounded=2;" vertex="1" parent="1">
          <mxGeometry x="250" y="120" width="160" height="60" as="geometry" />
        </mxCell>
        <mxCell id="e-EIxeC3hsusqqLx89U6-134" value="nebula-studio" style="whiteSpace=wrap;html=1;fillColor=#C8E6C9;strokeColor=#388E3C;fontSize=9;rounded=2;" vertex="1" parent="1">
          <mxGeometry x="430" y="120" width="160" height="60" as="geometry" />
        </mxCell>
        <mxCell id="e-EIxeC3hsusqqLx89U6-135" value="nebula-cloud" style="whiteSpace=wrap;html=1;fillColor=#C8E6C9;strokeColor=#388E3C;fontSize=9;rounded=2;" vertex="1" parent="1">
          <mxGeometry x="610" y="120" width="160" height="60" as="geometry" />
        </mxCell>
        <mxCell id="e-EIxeC3hsusqqLx89U6-136" value="nebula-gui" style="whiteSpace=wrap;html=1;fillColor=#C8E6C9;strokeColor=#388E3C;fontSize=9;rounded=2;" vertex="1" parent="1">
          <mxGeometry x="790" y="120" width="140" height="60" as="geometry" />
        </mxCell>
        <mxCell id="e-EIxeC3hsusqqLx89U6-137" value="api/dashboard/" style="whiteSpace=wrap;html=1;fillColor=#FFE0B2;strokeColor=#F57C00;fontSize=9;rounded=2;" vertex="1" parent="1">
          <mxGeometry x="100" y="240" width="180" height="60" as="geometry" />
        </mxCell>
        <mxCell id="e-EIxeC3hsusqqLx89U6-138" value="api/explorer/" style="whiteSpace=wrap;html=1;fillColor=#FFE0B2;strokeColor=#F57C00;fontSize=9;rounded=2;" vertex="1" parent="1">
          <mxGeometry x="300" y="240" width="180" height="60" as="geometry" />
        </mxCell>
        <mxCell id="e-EIxeC3hsusqqLx89U6-139" value="api/studio/" style="whiteSpace=wrap;html=1;fillColor=#FFE0B2;strokeColor=#F57C00;fontSize=9;rounded=2;" vertex="1" parent="1">
          <mxGeometry x="500" y="240" width="180" height="60" as="geometry" />
        </mxCell>
        <mxCell id="e-EIxeC3hsusqqLx89U6-140" value="pkg/" style="whiteSpace=wrap;html=1;fillColor=#FFE0B2;strokeColor=#F57C00;fontSize=8;rounded=2;" vertex="1" parent="1">
          <mxGeometry x="700" y="240" width="120" height="30" as="geometry" />
        </mxCell>
        <mxCell id="e-EIxeC3hsusqqLx89U6-141" value="tools/" style="whiteSpace=wrap;html=1;fillColor=#FFE0B2;strokeColor=#F57C00;fontSize=8;rounded=2;" vertex="1" parent="1">
          <mxGeometry x="700" y="275" width="120" height="25" as="geometry" />
        </mxCell>
        <mxCell id="e-EIxeC3hsusqqLx89U6-142" value="ui-components" style="whiteSpace=wrap;html=1;fillColor=#E1BEE7;strokeColor=#8E24AA;fontSize=8;rounded=2;" vertex="1" parent="1">
          <mxGeometry x="70" y="365" width="110" height="35" as="geometry" />
        </mxCell>
        <mxCell id="e-EIxeC3hsusqqLx89U6-143" value="force-graph" style="whiteSpace=wrap;html=1;fillColor=#E1BEE7;strokeColor=#8E24AA;fontSize=8;rounded=2;" vertex="1" parent="1">
          <mxGeometry x="200" y="365" width="110" height="35" as="geometry" />
        </mxCell>
        <mxCell id="e-EIxeC3hsusqqLx89U6-144" value="utils" style="whiteSpace=wrap;html=1;fillColor=#E1BEE7;strokeColor=#8E24AA;fontSize=8;rounded=2;" vertex="1" parent="1">
          <mxGeometry x="330" y="365" width="110" height="35" as="geometry" />
        </mxCell>
        <mxCell id="e-EIxeC3hsusqqLx89U6-145" value="builder" style="whiteSpace=wrap;html=1;fillColor=#E1BEE7;strokeColor=#8E24AA;fontSize=8;rounded=2;" vertex="1" parent="1">
          <mxGeometry x="460" y="365" width="110" height="35" as="geometry" />
        </mxCell>
        <mxCell id="e-EIxeC3hsusqqLx89U6-146" value="rs-algos" style="whiteSpace=wrap;html=1;fillColor=#E1BEE7;strokeColor=#8E24AA;fontSize=8;rounded=2;" vertex="1" parent="1">
          <mxGeometry x="590" y="365" width="110" height="35" as="geometry" />
        </mxCell>
        <mxCell id="e-EIxeC3hsusqqLx89U6-147" value="config-*" style="whiteSpace=wrap;html=1;fillColor=#E1BEE7;strokeColor=#8E24AA;fontSize=8;rounded=2;" vertex="1" parent="1">
          <mxGeometry x="720" y="365" width="200" height="35" as="geometry" />
        </mxCell>
        <mxCell id="e-EIxeC3hsusqqLx89U6-148" value="pnpm Workspaces + Turbo 任务编排" style="whiteSpace=wrap;html=1;fillColor=#E1BEE7;strokeColor=#8E24AA;fontSize=8;fontStyle=1;rounded=2;" vertex="1" parent="1">
          <mxGeometry x="70" y="410" width="850" height="40" as="geometry" />
        </mxCell>
        <mxCell id="e-EIxeC3hsusqqLx89U6-149" value="端口分配: Dashboard:3005, API Proxy:7005" style="whiteSpace=wrap;html=1;fillColor=#EEEEEE;strokeColor=#9E9E9E;fontSize=8;rounded=2;" vertex="1" parent="1">
          <mxGeometry x="70" y="600" width="400" height="30" as="geometry" />
        </mxCell>
        <mxCell id="e-EIxeC3hsusqqLx89U6-150" value="环境变量: PLATFORM (NORMAL/ONE_MACHINE/GUI), DEFAULT_LANGUAGE (en_US/zh_CN)" style="whiteSpace=wrap;html=1;fillColor=#EEEEEE;strokeColor=#9E9E9E;fontSize=8;rounded=2;" vertex="1" parent="1">
          <mxGeometry x="490" y="600" width="430" height="30" as="geometry" />
        </mxCell>
      </root>
    </mxGraphModel>
  </diagram>
</mxfile>
